<?xml version="1.0" standalone="no"?>
<!DOCTYPE svg PUBLIC "-//W3C//DTD SVG 20010904//EN"
 "http://www.w3.org/TR/2001/REC-SVG-20010904/DTD/svg10.dtd">
<svg version="1.0" xmlns="http://www.w3.org/2000/svg"
 width="1400.000000pt" height="1400.000000pt" viewBox="0 0 1400.000000 1400.000000"
 preserveAspectRatio="xMidYMid meet">
<metadata>
Created by potrace 1.14, written by Peter Selinger 2001-2017
</metadata>
<g transform="translate(0.000000,1400.000000) scale(0.100000,-0.100000)"
fill="#000000" stroke="none">
<path d="M6635 11669 c-298 -15 -451 -30 -660 -64 -55 -10 -122 -21 -150 -25
-27 -5 -79 -16 -115 -25 -36 -9 -83 -20 -105 -24 -38 -8 -208 -62 -250 -81
-266 -116 -405 -237 -497 -430 -36 -77 -52 -132 -79 -280 -9 -49 -26 -1147
-17 -1152 1 -2 500 -5 1108 -8 l1105 -5 3 -137 3 -138 -1623 -3 c-1285 -2
-1637 -5 -1688 -16 -239 -47 -431 -130 -605 -259 -56 -42 -182 -164 -231 -224
-28 -33 -124 -175 -124 -183 0 -3 -10 -22 -23 -43 -13 -20 -40 -80 -61 -132
-21 -52 -41 -104 -46 -115 -7 -18 -23 -78 -50 -185 -43 -170 -99 -461 -119
-620 -36 -285 -36 -721 -1 -960 33 -222 46 -292 91 -495 17 -77 35 -156 39
-175 9 -49 49 -178 66 -218 8 -18 14 -37 14 -42 0 -19 81 -190 134 -285 16
-27 60 -92 98 -142 161 -215 387 -357 644 -405 50 -9 195 -13 529 -13 l460 0
6 600 c3 338 10 620 16 645 79 356 248 628 531 854 141 112 348 213 527 256
165 39 198 40 1450 40 1310 0 1217 -3 1415 48 216 56 501 281 618 487 39 71
95 189 103 220 4 16 18 66 31 110 l23 80 0 1240 0 1240 -23 80 c-13 44 -26 89
-29 99 -10 32 -73 158 -106 211 -34 56 -161 209 -187 228 -9 7 -41 32 -69 56
-29 25 -76 60 -104 77 -29 18 -56 37 -62 41 -35 28 -230 118 -290 134 -16 4
-55 15 -85 24 -303 88 -1066 142 -1615 114z"/>
<path d="M9500 9269 c0 -5 5 -7 10 -4 6 3 10 8 10 11 0 2 -4 4 -10 4 -5 0 -10
-5 -10 -11z"/>
<path d="M9563 9273 c9 -2 23 -2 30 0 6 3 -1 5 -18 5 -16 0 -22 -2 -12 -5z"/>
<path d="M10263 9273 c9 -2 25 -2 35 0 9 3 1 5 -18 5 -19 0 -27 -2 -17 -5z"/>
<path d="M10519 9243 c-13 -15 -11 -16 16 -9 41 10 56 26 23 26 -14 0 -32 -7
-39 -17z"/>
<path d="M10620 9230 c20 -13 40 -13 40 0 0 6 -12 10 -27 10 -22 0 -25 -2 -13
-10z"/>
<path d="M10563 9183 c9 -2 25 -2 35 0 9 3 1 5 -18 5 -19 0 -27 -2 -17 -5z"/>
<path d="M10748 9183 c7 -3 16 -2 19 1 4 3 -2 6 -13 5 -11 0 -14 -3 -6 -6z"/>
<path d="M10700 9166 c0 -2 7 -6 15 -10 8 -3 15 -1 15 4 0 6 -7 10 -15 10 -8
0 -15 -2 -15 -4z"/>
<path d="M9502 9080 c0 -14 2 -19 5 -12 2 6 2 18 0 25 -3 6 -5 1 -5 -13z"/>
<path d="M10840 9070 c0 -6 7 -10 15 -10 8 0 15 2 15 4 0 2 -7 6 -15 10 -8 3
-15 1 -15 -4z"/>
<path d="M9452 7920 c0 -14 2 -19 5 -12 2 6 2 18 0 25 -3 6 -5 1 -5 -13z"/>
<path d="M9200 7425 c0 -8 2 -15 4 -15 2 0 6 7 10 15 3 8 1 15 -4 15 -6 0 -10
-7 -10 -15z"/>
<path d="M8318 6903 c7 -3 16 -2 19 1 4 3 -2 6 -13 5 -11 0 -14 -3 -6 -6z"/>
<path d="M5620 6850 c0 -5 7 -7 15 -4 8 4 15 8 15 10 0 2 -7 4 -15 4 -8 0 -15
-4 -15 -10z"/>
<path d="M5490 6804 c-32 -16 -41 -24 -29 -29 8 -3 29 1 45 10 16 8 34 15 40
15 7 0 14 7 18 15 8 21 -19 17 -74 -11z"/>
<path d="M5575 6780 c3 -5 12 -10 20 -10 8 0 17 5 20 10 4 6 -5 10 -20 10 -15
0 -24 -4 -20 -10z"/>
<path d="M5663 6783 c9 -2 25 -2 35 0 9 3 1 5 -18 5 -19 0 -27 -2 -17 -5z"/>
<path d="M5530 6742 c0 -5 7 -9 15 -9 8 0 12 4 9 9 -3 4 -9 8 -15 8 -5 0 -9
-4 -9 -8z"/>
<path d="M5639 6739 c-10 -6 -7 -9 14 -9 29 0 35 5 14 13 -8 3 -20 1 -28 -4z"/>
<path d="M5335 6730 c4 -6 11 -8 16 -5 14 9 11 15 -7 15 -8 0 -12 -5 -9 -10z"/>
<path d="M5220 6641 c0 -11 26 -22 34 -14 12 12 5 23 -14 23 -11 0 -20 -4 -20
-9z"/>
<path d="M5204 6564 c3 -9 6 -20 6 -25 0 -5 5 -9 10 -9 6 0 10 11 10 25 0 16
-6 25 -16 25 -11 0 -14 -5 -10 -16z"/>
<path d="M5000 6440 c0 -5 4 -10 9 -10 6 0 13 5 16 10 3 6 -1 10 -9 10 -9 0
-16 -4 -16 -10z"/>
<path d="M5046 6432 c-2 -4 -1 -14 5 -22 7 -12 9 -10 9 8 0 23 -5 28 -14 14z"/>
<path d="M5350 6330 c0 -5 7 -10 15 -10 8 0 15 5 15 10 0 6 -7 10 -15 10 -8 0
-15 -4 -15 -10z"/>
<path d="M4907 6271 c-3 -11 1 -22 8 -25 8 -3 15 -17 18 -33 3 -25 4 -24 5 7
1 19 -5 43 -12 53 -13 17 -14 16 -19 -2z"/>
<path d="M4881 6223 c0 -12 -5 -25 -11 -28 -5 -3 -10 -11 -10 -18 0 -7 6 -5
16 5 9 9 14 26 11 39 -4 23 -4 23 -6 2z"/>
<path d="M5031 6174 c0 -11 3 -14 6 -6 3 7 2 16 -1 19 -3 4 -6 -2 -5 -13z"/>
<path d="M4830 6130 c0 -5 4 -10 9 -10 6 0 13 5 16 10 3 6 -1 10 -9 10 -9 0
-16 -4 -16 -10z"/>
<path d="M4811 6035 c0 -35 2 -37 11 -19 7 15 7 28 -1 40 -9 16 -10 12 -10
-21z"/>
<path d="M4792 5900 c0 -14 2 -19 5 -12 2 6 2 18 0 25 -3 6 -5 1 -5 -13z"/>
</g>
</svg>
