<?xml version="1.0" encoding="UTF-8" standalone="no"?>
<svg xmlns:dc="http://purl.org/dc/elements/1.1/"
    xmlns:cc="http://creativecommons.org/ns#"
    xmlns:rdf="http://www.w3.org/1999/02/22-rdf-syntax-ns#"
    xmlns:svg="http://www.w3.org/2000/svg"
    xmlns="http://www.w3.org/2000/svg"
    xmlns:sodipodi="http://sodipodi.sourceforge.net/DTD/sodipodi-0.dtd"
    xmlns:inkscape="http://www.inkscape.org/namespaces/inkscape" version="1.1" id="svg833" width="3508" height="4961" viewBox="0 0 3508 4961" sodipodi:docname="BinaryInstitute.svg" inkscape:version="1.0.1 (3bc2e813f5, 2020-09-07)">
    <metadata id="metadata839">
        <rdf:RDF>
            <cc:Work rdf:about="">
                <dc:format>image/svg+xml</dc:format>
                <dc:type rdf:resource="http://purl.org/dc/dcmitype/StillImage" />
                <dc:title />
            </cc:Work>
        </rdf:RDF>
    </metadata>
    <defs id="defs837" />
    <sodipodi:namedview pagecolor="#ffffff" bordercolor="#666666" borderopacity="1" objecttolerance="10" gridtolerance="10" guidetolerance="10" inkscape:pageopacity="0" inkscape:pageshadow="2" inkscape:window-width="1440" inkscape:window-height="837" id="namedview835" showgrid="false" showguides="true" inkscape:guide-bbox="true" inkscape:zoom="0.15861561" inkscape:cx="2484.6294" inkscape:cy="851.15107" inkscape:window-x="-8" inkscape:window-y="-8" inkscape:window-maximized="1" inkscape:current-layer="g841" inkscape:document-rotation="0">
        <sodipodi:guide position="1080.7632,3565.8935" orientation="0,-1" id="guide940" />
        <sodipodi:guide position="2147.0866,1955.3009" orientation="0,-1" id="guide942" />
        <sodipodi:guide position="1463.0134,2542.1613" orientation="0,-1" id="guide3138" />
    </sodipodi:namedview>
    <g inkscape:groupmode="layer" inkscape:label="Image" id="g841">
        <path id="rect888" style="opacity:1;fill:#a10707;fill-opacity:1;stroke-width:0.713013;stroke-linecap:round;stroke-linejoin:round;paint-order:stroke fill markers" d="m 178.62546,516.69619 v 1390.65921 830.2768 a 1575.7169,1276.5251 0 0 0 -0.68614,37.568 1575.7169,1276.5251 0 0 0 0.68614,37.5298 v 55.5582 h 3.51242 a 1575.7169,1276.5251 0 0 0 440.4013,795.6258 c -1.24857,-0.6942 -2.5035,-1.3766 -3.75061,-2.0731 l 7.37254,5.0897 a 1575.7169,1276.5251 0 0 0 219.25461,151.4009 l 906.53278,625.9723 891.5111,-615.5973 a 1575.7169,1276.5251 0 0 0 681.7164,-960.4183 h 4.8847 V 1907.3554 516.69619 Z M 744.14506,1141.744 H 1061.3489 V 2893.6845 H 744.14506 Z m 947.46974,0.3669 h 757.4764 c 174.3792,0 314.7638,140.3846 314.7638,314.7637 v 1119.7636 c 0,174.3791 -140.3846,314.7637 -314.7638,314.7637 h -757.4764 c -174.379,0 -314.7637,-140.3846 -314.7637,-314.7637 V 1456.8746 c 0,-174.3791 140.3847,-314.7637 314.7637,-314.7637 z m 156.0762,315.8456 c -85.1618,0 -153.7218,68.56 -153.7218,153.7218 v 812.8441 c 0,85.1619 68.56,153.7219 153.7218,153.7219 h 444.9764 c 85.1618,0 153.7218,-68.56 153.7218,-153.7219 v -812.8441 c 0,-85.1618 -68.56,-153.7218 -153.7218,-153.7218 z m -694.8745,1554.1694 h 109.1198 c 30.2251,0 54.5575,24.3325 54.5575,54.5577 h -27.2787 c 0,-15.1126 -12.1663,-27.2788 -27.2788,-27.2788 h -109.1198 c -15.1125,0 -27.2788,12.1662 -27.2788,27.2788 0,15.1123 12.1663,27.2787 27.2788,27.2787 h 109.1198 v 0.066 c 30.2251,0 54.5575,24.3325 54.5575,54.5576 0,30.2252 -24.3324,54.5575 -54.5575,54.5575 h -109.1198 c -30.2251,0 -54.5576,-24.3323 -54.5576,-54.5575 h 27.2788 c 0,15.1126 12.1663,27.2788 27.2788,27.2788 h 109.1198 c 15.1125,0 27.2788,-12.1662 27.2788,-27.2788 0,-15.1125 -12.1663,-27.2787 -27.2788,-27.2787 h -109.1198 v -0.066 c -30.2251,0 -54.5576,-24.3327 -54.5576,-54.5576 0,-30.2252 24.3325,-54.5577 54.5576,-54.5577 z m -451.44831,0.7055 h 28.45589 v 189.5024 h -28.45589 z m 1726.28721,0 h 28.4654 v 0.029 h 95.1325 v 28.4034 h -95.1325 v 161.0704 h -28.4654 v -161.0704 h -95.128 v -28.4042 h 95.128 z m 189.4787,0.029 h 28.4605 161.0419 v 28.4608 h -161.0419 v 52.47 h 161.0419 v 28.4605 h -161.0419 v 52.4701 h 161.0419 v 28.4608 h -189.5024 v -0.8197 -27.6411 -52.4701 -28.4605 -52.47 z m -1111.8621,0.1854 v 0.034 h 95.1326 v 28.4037 h -95.1326 v 161.0704 h -28.4607 v -161.0704 h -95.1326 v -28.4037 h 95.1326 v -0.029 z m 350.4872,0 h 28.4608 v 0.029 h 95.1323 v 28.4034 H 1884.22 v 161.0704 h -28.4608 v -161.0655 h -95.1325 v -28.4036 h 95.1325 z m 189.4739,0.029 h 28.4607 l 0.5196,150.443 10.5941,10.2224 h 139.0482 c 0,0 6.5731,0.3956 11.7379,-5.876 3.6413,-4.4219 3.255,-15.3312 3.255,-15.3312 l 0.2196,-139.4582 h 28.4608 l 0.5575,160.594 c 0,0 -0.8166,12.1548 -8.6355,20.3257 -7.8188,8.1709 -20.3828,8.583 -20.3828,8.583 h -165.374 c -9.4868,0 -12.4841,-1.2656 -19.4057,-7.344 -6.9216,-6.0784 -9.0549,-21.8412 -9.0549,-21.8412 z m -1249.52823,0 h 43.53932 l 20.47821,20.2256 127.91075,128.7306 15.09295,15.0978 v -164.054 h 28.4606 v 189.5027 h -43.55355 l -20.47795,-20.0683 -127.91101,-128.7305 -15.07866,-15.0836 v 163.8827 h -28.46066 z m 870.58053,0 h 28.4605 v 189.4981 h -28.4605 z" inkscape:export-xdpi="36.541328" inkscape:export-ydpi="36.541328" />
        <rect style="fill:#a10707;fill-opacity:1;stroke:#ffffff;stroke-width:0.377953;stroke-linecap:round;stroke-linejoin:round;paint-order:stroke fill markers" id="rect833" width="37.795277" height="37.795277" x="50.452469" y="58.541893" />
    </g>
</svg>
