<?xml version="1.0" encoding="utf-8"?>
<!-- Generator: Adobe Illustrator 23.0.1, SVG Export Plug-In . SVG Version: 6.00 Build 0)  -->
<svg version="1.2" baseProfile="tiny" id="Layer_1" xmlns="http://www.w3.org/2000/svg" xmlns:xlink="http://www.w3.org/1999/xlink"
	 x="0px" y="0px" viewBox="0 0 350 120" xml:space="preserve">
<title>Beem-menu-logo</title>
<path fill="#0AB6BE" d="M43.3,40.7h8.2c1.4,0,2.5-1.1,2.5-2.5V14.5c0-1.4-1.1-2.5-2.5-2.5h-8.2c-1.4,0-2.5,1.1-2.5,2.5v23.7
	C40.8,39.6,41.9,40.7,43.3,40.7"/>
<path fill="#0AB6BE" d="M140.8,46c-17.6,0-31,13.1-31,30.4s13.4,30.5,31,30.5c13.1,0,23.7-6.7,28.7-16.8c0.6-1,0.2-2.3-0.8-2.8
	c-0.3-0.2-0.7-0.3-1.1-0.3h-9.5c-0.7,0-1.3,0.4-1.7,0.9c-2.8,4.5-8.5,7.5-15.5,7.5c-7.3,0.2-13.9-4.3-16.5-11.2
	c-0.4-1.1,0.1-2.3,1.1-2.7c0.2-0.1,0.5-0.2,0.8-0.2h43.4c1.1,0,2-0.8,2.1-1.9c0.1-1,0.2-2.1,0.2-2.9C172,59.1,158.6,46,140.8,46
	 M155.2,70.8h-28.6c-1.2,0-2.1-1-2.1-2.1c0-0.3,0.1-0.5,0.2-0.8c2.8-6.4,9.1-10.5,16.1-10.4c7-0.1,13.4,4,16.3,10.4
	c0.5,1,0.1,2.2-0.9,2.7C155.9,70.7,155.6,70.8,155.2,70.8"/>
<path fill="#0AB6BE" d="M210.6,46c-17.7,0-31,13.1-31,30.4s13.3,30.5,31,30.5c13.1,0,23.7-6.7,28.7-16.8c0.6-1,0.2-2.3-0.8-2.8
	c-0.3-0.2-0.7-0.3-1.1-0.3h-9.5c-0.7,0-1.3,0.3-1.7,0.9c-2.8,4.5-8.5,7.5-15.5,7.5c-7.4,0.2-14-4.3-16.6-11.2
	c-0.4-1.2,0.2-2.4,1.4-2.8c0.2-0.1,0.4-0.1,0.6-0.1h43.4c1.1,0,2-0.8,2.1-1.9c0.1-1,0.1-2.1,0.1-2.9C241.7,59.1,228.4,46,210.6,46
	 M225,70.8h-28.6c-1.2,0-2.1-0.9-2.2-2c0-0.3,0-0.6,0.2-0.9c4.1-9,14.8-12.9,23.8-8.7c3.9,1.8,7,4.9,8.7,8.7
	c0.4,1.1-0.1,2.3-1.1,2.7C225.5,70.7,225.3,70.8,225,70.8"/>
<path fill="#0AB6BE" d="M320.6,46c-7.9,0-14.2,3-18.6,8.6c-0.7,0.9-1.9,1-2.8,0.4c-0.2-0.2-0.4-0.3-0.5-0.6
	c-3.7-5.3-9.8-8.4-17.6-8.4c-5.3-0.1-10.4,1.6-14.5,5c-0.9,0.8-2.2,0.7-3-0.2c-0.3-0.4-0.5-0.8-0.5-1.3l0,0c0-1.2-0.9-2.1-2.1-2.1
	l0,0h-8.6c-1.2,0-2.1,0.9-2.1,2.1v0v53.9c0,1.2,0.9,2.1,2.1,2.1l0,0h8.6c1.2,0,2.1-0.9,2.1-2.1c0,0,0,0,0,0V71.8
	c0-8.1,5.6-13.5,13.8-13.5s12.9,5.3,12.9,13.2v31.9c0,1.2,0.9,2.1,2.1,2.1l0,0h8.6c1.2,0,2.1-0.9,2.1-2.1c0,0,0,0,0,0V71.8
	c0-8.1,5.5-13.5,13.7-13.5s12.9,5.3,12.9,13.2v31.9c0,1.2,0.9,2.1,2.1,2.1l0,0h8.6c1.2,0,2.1-0.9,2.1-2.1c0,0,0,0,0,0V67.8
	C342,54.7,333.4,46,320.6,46"/>
<path fill="#0AB6BE" d="M71.7,45.6H10.8c-1.5,0-2.8,1.3-2.8,2.8v0v7.8c0,1.5,1.3,2.8,2.8,2.8h60.9c1.1,0,2.2,0.1,3.3,0.3
	c9.6,1.8,15.9,11.1,14.1,20.7S78,95.9,68.4,94.1C59.9,92.5,53.9,85,54,76.4v-9.2c0-1.4-1.2-2.6-2.6-2.6h-8c-1.4-0.1-2.5,1-2.6,2.4
	c0,0.1,0,0.1,0,0.2v10.2c-0.1,3.5,0.5,7,1.8,10.2C47.1,99.8,58.7,108,71.7,108c3.6,0,7.1-0.6,10.5-1.8c16.2-5.8,24.7-23.6,19-39.8
	C96.7,53.9,84.9,45.6,71.7,45.6"/>
<path fill="#FDA800" d="M10.8,12h8.8c1.6,0.1,2.8,1.3,2.8,2.9v8.7c0,1.5-1.3,2.8-2.8,2.8h-8.8c-1.5,0-2.8-1.3-2.8-2.8v-8.7
	C8,13.3,9.2,12.1,10.8,12"/>
</svg>
