<?xml version="1.0" encoding="utf-8"?>
<!-- Generator: Adobe Illustrator 23.0.4, SVG Export Plug-In . SVG Version: 6.00 Build 0)  -->
<svg version="1.1" id="Layer_1" xmlns="http://www.w3.org/2000/svg" xmlns:xlink="http://www.w3.org/1999/xlink" x="0px" y="0px"
	 viewBox="0 0 595.3 255.1" style="enable-background:new 0 0 595.3 255.1;" xml:space="preserve">
<style type="text/css">
	.st0{fill:#4098E5;}
	.st1{fill:#F8FBFD;}
	.st2{fill:#FBFCFE;}
	.st3{fill:#FBFDFE;}
	.st4{fill:#FAFCFD;}
</style>
<title>Irabu</title>
<g>
	<path class="st0" d="M0,9.8C0.1,4.2,4.7-0.1,10.2,0c0,0,0,0,0,0H585c5.5-0.2,10.1,4.2,10.3,9.7c0,0,0,0,0,0.1v235.6
		c-0.1,5.5-4.7,9.9-10.2,9.8c0,0,0,0,0,0H10.3c-5.5,0.1-10.1-4.2-10.3-9.7c0,0,0,0,0,0V9.8z"/>
</g>
<path class="st1" d="M143,100.7c0,22.7,0,45,0,67.8c-7.6,0-14.8,0-22.5,0c0-22.5,0-44.8,0-67.8C127.9,100.7,135.3,100.7,143,100.7z"
	/>
<path class="st2" d="M120.2,62.6c0.1-6.6,5.2-11.7,11.7-11.6c6.4,0.1,11.6,5.4,11.5,11.9c-0.1,6.5-5.4,11.7-11.8,11.6
	C125.1,74.5,120.1,69.2,120.2,62.6z"/>
<path class="st1" d="M225.6,101.5c-3.1,7-5.9,13.5-8.9,20.3c-1.8-0.7-3.4-1.3-5-1.9c-12-4.2-20.1,2.2-20.3,16.1
	c-0.1,10.9-0.1,21.9-0.1,32.8c0,0.5-0.1,1-0.3,2.1c-6.9,0-13.9,0-21.5,0c-0.2-1.6-0.6-3.5-0.6-5.4c0-19.9,0.1-39.8-0.1-59.7
	c-0.1-5.6,1.5-7.6,6.5-7.2c5.1,0.4,10.2,0.1,15.6,0.1c0.3,3,0.6,5.4,1,9.1C201.7,96.9,212.4,93.3,225.6,101.5z"/>
<path class="st3" d="M291.9,102.5c6.7-9,15.9-1.5,23.9-5.4c0,23.3,0,45.3,0,67.8c-6.8,0-13.7,0-21.1,0c-0.5-1.7-1.1-3.5-1.7-5.5
	c-17.7,11.1-33.3,10.1-44.6-2.5c-11.7-13.1-12.3-34.6-1.4-48.4C257.8,94.9,273.9,92.8,291.9,102.5z M278.7,116.2
	c-8.7,0.1-15.4,7.1-15.3,16c0.1,9,6.9,15.7,15.8,15.4c8.5-0.2,14.9-6.9,15-15.6C294.2,123.1,287.4,116.1,278.7,116.2z"/>
<path class="st4" d="M362.2,102.4c23.1-10.8,39.4-8.3,50.5,7.2c10.7,15,8.7,36.7-4.5,49.3c-12.1,11.6-29.1,11.9-45.1,0.5
	c-0.3,6.6-4.7,6.6-9.5,6.3c-4.7-0.3-9.5-0.1-14.7-0.1c0-38.6,0-76.3,0-114.7c7.6,0,15.1,0,23.5,0C362.2,68,362.2,85,362.2,102.4z
	 M393.9,132c0.1-9.3-6.7-16.3-15.9-16.4c-9.3-0.1-16.1,6.7-16.2,16.1c0,9.1,6.3,15.7,15.4,16C386.7,148,393.8,141.3,393.9,132z"/>
<path class="st3" d="M487,95.9c7.4,0,14.4,0,22.6,0c0,6.1,0.1,12.3,0,18.6c-0.2,10.2-0.1,20.5-1.1,30.6c-1.2,11.7-8,19.8-18.7,21.3
	c-10.7,1.5-21.8,1.4-32.5-0.1c-10.5-1.5-17.6-9.6-18.3-20.8c-1-16.4-0.3-33-0.3-49.7c7.1,0,14.2,0,21.9,0c0,9.7-0.1,19.2,0,28.7
	c0,3.9,0.1,7.8,0.6,11.7c1.3,9.3,4.9,12.6,13.1,12.4c7.7-0.2,11.6-4.2,12-13.6c0.4-11.2,0.2-22.4,0.3-33.6
	C486.6,99.5,486.8,97.9,487,95.9z"/>
</svg>
